<mxfile host="app.diagrams.net" modified="2024-02-03T13:42:09.408Z" agent="Mozilla/5.0 (Windows NT 10.0; Win64; x64) AppleWebKit/537.36 (KHTML, like Gecko) Chrome/121.0.0.0 Safari/537.36" etag="BDcvWFsFln96XmdIuNWi" version="23.1.1" type="gitlab">
  <diagram name="Page-1" id="03018318-947c-dd8e-b7a3-06fadd420f32">
    <mxGraphModel dx="1434" dy="-78" grid="1" gridSize="10" guides="1" tooltips="1" connect="1" arrows="1" fold="1" page="1" pageScale="1" pageWidth="1100" pageHeight="850" background="none" math="0" shadow="0">
      <root>
        <mxCell id="0" />
        <mxCell id="1" parent="0" />
        <mxCell id="nJRYPMrRPYgnmkcz7Azl-79" value="LOGO" style="whiteSpace=wrap;html=1;rounded=0;shadow=0;labelBackgroundColor=none;strokeWidth=1;fontFamily=Verdana;fontSize=28;align=center;comic=1;" vertex="1" parent="1">
          <mxGeometry x="39" y="879" width="190" height="50" as="geometry" />
        </mxCell>
        <mxCell id="nJRYPMrRPYgnmkcz7Azl-80" value="Home" style="text;html=1;points=[];align=left;verticalAlign=top;spacingTop=-4;fontSize=14;fontFamily=Verdana" vertex="1" parent="1">
          <mxGeometry x="329" y="894" width="60" height="20" as="geometry" />
        </mxCell>
        <mxCell id="nJRYPMrRPYgnmkcz7Azl-81" value="About us" style="text;html=1;points=[];align=left;verticalAlign=top;spacingTop=-4;fontSize=14;fontFamily=Verdana" vertex="1" parent="1">
          <mxGeometry x="449" y="894" width="60" height="20" as="geometry" />
        </mxCell>
        <mxCell id="nJRYPMrRPYgnmkcz7Azl-82" value="" style="line;strokeWidth=1;html=1;rounded=0;shadow=0;labelBackgroundColor=none;fillColor=none;fontFamily=Verdana;fontSize=14;fontColor=#000000;align=center;comic=1;" vertex="1" parent="1">
          <mxGeometry y="979" width="1100" height="10" as="geometry" />
        </mxCell>
        <mxCell id="nJRYPMrRPYgnmkcz7Azl-83" value="Predict" style="text;html=1;points=[];align=left;verticalAlign=top;spacingTop=-4;fontSize=14;fontFamily=Verdana" vertex="1" parent="1">
          <mxGeometry x="589" y="894" width="60" height="20" as="geometry" />
        </mxCell>
        <mxCell id="nJRYPMrRPYgnmkcz7Azl-84" value="Predict" style="text;html=1;points=[];align=left;verticalAlign=top;spacingTop=-4;fontSize=14;fontFamily=Verdana" vertex="1" parent="1">
          <mxGeometry x="729" y="894" width="60" height="20" as="geometry" />
        </mxCell>
        <mxCell id="nJRYPMrRPYgnmkcz7Azl-85" value="" style="verticalLabelPosition=bottom;shadow=0;dashed=0;align=center;html=1;verticalAlign=top;strokeWidth=1;shape=mxgraph.mockup.containers.userMale;strokeColor=#666666;strokeColor2=#008cff;" vertex="1" parent="1">
          <mxGeometry x="889" y="867" width="80" height="80" as="geometry" />
        </mxCell>
        <mxCell id="nJRYPMrRPYgnmkcz7Azl-86" value="" style="group" vertex="1" connectable="0" parent="1">
          <mxGeometry x="992" y="891" width="90" height="26" as="geometry" />
        </mxCell>
        <mxCell id="nJRYPMrRPYgnmkcz7Azl-87" value="" style="rounded=1;whiteSpace=wrap;html=1;" vertex="1" parent="nJRYPMrRPYgnmkcz7Azl-86">
          <mxGeometry width="90" height="26" as="geometry" />
        </mxCell>
        <mxCell id="nJRYPMrRPYgnmkcz7Azl-88" value="Log Out" style="text;html=1;points=[];align=left;verticalAlign=top;spacingTop=-4;fontSize=14;fontFamily=Verdana" vertex="1" parent="nJRYPMrRPYgnmkcz7Azl-86">
          <mxGeometry x="15" width="60" height="20" as="geometry" />
        </mxCell>
        <mxCell id="nJRYPMrRPYgnmkcz7Azl-89" value="" style="line;strokeWidth=1;html=1;rounded=0;shadow=0;labelBackgroundColor=none;fillColor=none;fontFamily=Verdana;fontSize=14;fontColor=#000000;align=center;comic=1;" vertex="1" parent="1">
          <mxGeometry y="1589" width="1100" height="10" as="geometry" />
        </mxCell>
        <mxCell id="nJRYPMrRPYgnmkcz7Azl-90" value="Copyright&amp;nbsp;&amp;nbsp;Â© 2024. Ryan Yeo. All Rights Reserved" style="text;html=1;align=center;verticalAlign=middle;resizable=0;points=[];autosize=1;strokeColor=none;fillColor=none;" vertex="1" parent="1">
          <mxGeometry x="31" y="1641" width="290" height="30" as="geometry" />
        </mxCell>
        <mxCell id="nJRYPMrRPYgnmkcz7Azl-91" value="&lt;b&gt;&lt;font style=&quot;font-size: 20px;&quot;&gt;History of Predictions&lt;/font&gt;&lt;/b&gt;" style="text;html=1;points=[];align=center;verticalAlign=top;spacingTop=-4;fontSize=14;fontFamily=Verdana" vertex="1" parent="1">
          <mxGeometry x="350" y="1027" width="420" height="20" as="geometry" />
        </mxCell>
        <mxCell id="nJRYPMrRPYgnmkcz7Azl-92" value="Assets" style="childLayout=tableLayout;recursiveResize=0;strokeColor=#98bf21;fillColor=#A7C942;shadow=1;" vertex="1" parent="1">
          <mxGeometry x="30" y="1184" width="1050" height="360" as="geometry" />
        </mxCell>
        <mxCell id="nJRYPMrRPYgnmkcz7Azl-93" style="shape=tableRow;horizontal=0;startSize=0;swimlaneHead=0;swimlaneBody=0;top=0;left=0;bottom=0;right=0;dropTarget=0;collapsible=0;recursiveResize=0;expand=0;fontStyle=0;strokeColor=inherit;fillColor=#ffffff;" vertex="1" parent="nJRYPMrRPYgnmkcz7Azl-92">
          <mxGeometry width="1050" height="45" as="geometry" />
        </mxCell>
        <mxCell id="nJRYPMrRPYgnmkcz7Azl-94" value="Image" style="connectable=0;recursiveResize=0;strokeColor=inherit;fillColor=#A7C942;align=center;fontStyle=1;fontColor=#FFFFFF;html=1;" vertex="1" parent="nJRYPMrRPYgnmkcz7Azl-93">
          <mxGeometry width="170" height="45" as="geometry">
            <mxRectangle width="170" height="45" as="alternateBounds" />
          </mxGeometry>
        </mxCell>
        <mxCell id="nJRYPMrRPYgnmkcz7Azl-101" value="Predicted Vegetable" style="connectable=0;recursiveResize=0;strokeColor=inherit;fillColor=#A7C942;align=center;fontStyle=1;fontColor=#FFFFFF;html=1;" vertex="1" parent="nJRYPMrRPYgnmkcz7Azl-93">
          <mxGeometry x="170" width="221" height="45" as="geometry">
            <mxRectangle width="221" height="45" as="alternateBounds" />
          </mxGeometry>
        </mxCell>
        <mxCell id="nJRYPMrRPYgnmkcz7Azl-102" value="Confidence" style="connectable=0;recursiveResize=0;strokeColor=inherit;fillColor=#A7C942;align=center;fontStyle=1;fontColor=#FFFFFF;html=1;" vertex="1" parent="nJRYPMrRPYgnmkcz7Azl-93">
          <mxGeometry x="391" width="150" height="45" as="geometry">
            <mxRectangle width="150" height="45" as="alternateBounds" />
          </mxGeometry>
        </mxCell>
        <mxCell id="nJRYPMrRPYgnmkcz7Azl-103" value="Prediction Date" style="connectable=0;recursiveResize=0;strokeColor=inherit;fillColor=#A7C942;align=center;fontStyle=1;fontColor=#FFFFFF;html=1;" vertex="1" parent="nJRYPMrRPYgnmkcz7Azl-93">
          <mxGeometry x="541" width="170" height="45" as="geometry">
            <mxRectangle width="170" height="45" as="alternateBounds" />
          </mxGeometry>
        </mxCell>
        <mxCell id="nJRYPMrRPYgnmkcz7Azl-164" value="Model Version" style="connectable=0;recursiveResize=0;strokeColor=inherit;fillColor=#A7C942;align=center;fontStyle=1;fontColor=#FFFFFF;html=1;" vertex="1" parent="nJRYPMrRPYgnmkcz7Azl-93">
          <mxGeometry x="711" width="169" height="45" as="geometry">
            <mxRectangle width="169" height="45" as="alternateBounds" />
          </mxGeometry>
        </mxCell>
        <mxCell id="nJRYPMrRPYgnmkcz7Azl-104" value="Delete" style="connectable=0;recursiveResize=0;strokeColor=inherit;fillColor=#A7C942;align=center;fontStyle=1;fontColor=#FFFFFF;html=1;" vertex="1" parent="nJRYPMrRPYgnmkcz7Azl-93">
          <mxGeometry x="880" width="170" height="45" as="geometry">
            <mxRectangle width="170" height="45" as="alternateBounds" />
          </mxGeometry>
        </mxCell>
        <mxCell id="nJRYPMrRPYgnmkcz7Azl-105" value="" style="shape=tableRow;horizontal=0;startSize=0;swimlaneHead=0;swimlaneBody=0;top=0;left=0;bottom=0;right=0;dropTarget=0;collapsible=0;recursiveResize=0;expand=0;fontStyle=0;strokeColor=inherit;fillColor=#ffffff;" vertex="1" parent="nJRYPMrRPYgnmkcz7Azl-92">
          <mxGeometry y="45" width="1050" height="82" as="geometry" />
        </mxCell>
        <mxCell id="nJRYPMrRPYgnmkcz7Azl-106" value="Value 1" style="connectable=0;recursiveResize=0;strokeColor=inherit;fillColor=inherit;align=center;whiteSpace=wrap;html=1;" vertex="1" parent="nJRYPMrRPYgnmkcz7Azl-105">
          <mxGeometry width="170" height="82" as="geometry">
            <mxRectangle width="170" height="82" as="alternateBounds" />
          </mxGeometry>
        </mxCell>
        <mxCell id="nJRYPMrRPYgnmkcz7Azl-113" value="Bottle Gourd" style="connectable=0;recursiveResize=0;strokeColor=inherit;fillColor=inherit;align=center;whiteSpace=wrap;html=1;" vertex="1" parent="nJRYPMrRPYgnmkcz7Azl-105">
          <mxGeometry x="170" width="221" height="82" as="geometry">
            <mxRectangle width="221" height="82" as="alternateBounds" />
          </mxGeometry>
        </mxCell>
        <mxCell id="nJRYPMrRPYgnmkcz7Azl-114" value="98.7%" style="connectable=0;recursiveResize=0;strokeColor=inherit;fillColor=inherit;align=center;whiteSpace=wrap;html=1;" vertex="1" parent="nJRYPMrRPYgnmkcz7Azl-105">
          <mxGeometry x="391" width="150" height="82" as="geometry">
            <mxRectangle width="150" height="82" as="alternateBounds" />
          </mxGeometry>
        </mxCell>
        <mxCell id="nJRYPMrRPYgnmkcz7Azl-115" value="1/2/2024 9.22 p.m." style="connectable=0;recursiveResize=0;strokeColor=inherit;fillColor=inherit;align=center;whiteSpace=wrap;html=1;" vertex="1" parent="nJRYPMrRPYgnmkcz7Azl-105">
          <mxGeometry x="541" width="170" height="82" as="geometry">
            <mxRectangle width="170" height="82" as="alternateBounds" />
          </mxGeometry>
        </mxCell>
        <mxCell id="nJRYPMrRPYgnmkcz7Azl-165" value="128x128" style="connectable=0;recursiveResize=0;strokeColor=inherit;fillColor=inherit;align=center;whiteSpace=wrap;html=1;" vertex="1" parent="nJRYPMrRPYgnmkcz7Azl-105">
          <mxGeometry x="711" width="169" height="82" as="geometry">
            <mxRectangle width="169" height="82" as="alternateBounds" />
          </mxGeometry>
        </mxCell>
        <mxCell id="nJRYPMrRPYgnmkcz7Azl-116" style="connectable=0;recursiveResize=0;strokeColor=inherit;fillColor=inherit;align=center;whiteSpace=wrap;html=1;" vertex="1" parent="nJRYPMrRPYgnmkcz7Azl-105">
          <mxGeometry x="880" width="170" height="82" as="geometry">
            <mxRectangle width="170" height="82" as="alternateBounds" />
          </mxGeometry>
        </mxCell>
        <mxCell id="nJRYPMrRPYgnmkcz7Azl-117" value="" style="shape=tableRow;horizontal=0;startSize=0;swimlaneHead=0;swimlaneBody=0;top=0;left=0;bottom=0;right=0;dropTarget=0;collapsible=0;recursiveResize=0;expand=0;fontStyle=1;strokeColor=inherit;fillColor=#EAF2D3;" vertex="1" parent="nJRYPMrRPYgnmkcz7Azl-92">
          <mxGeometry y="127" width="1050" height="80" as="geometry" />
        </mxCell>
        <mxCell id="nJRYPMrRPYgnmkcz7Azl-118" value="Value 4" style="connectable=0;recursiveResize=0;strokeColor=inherit;fillColor=inherit;whiteSpace=wrap;html=1;" vertex="1" parent="nJRYPMrRPYgnmkcz7Azl-117">
          <mxGeometry width="170" height="80" as="geometry">
            <mxRectangle width="170" height="80" as="alternateBounds" />
          </mxGeometry>
        </mxCell>
        <mxCell id="nJRYPMrRPYgnmkcz7Azl-125" value="Tomato" style="connectable=0;recursiveResize=0;strokeColor=inherit;fillColor=inherit;whiteSpace=wrap;html=1;" vertex="1" parent="nJRYPMrRPYgnmkcz7Azl-117">
          <mxGeometry x="170" width="221" height="80" as="geometry">
            <mxRectangle width="221" height="80" as="alternateBounds" />
          </mxGeometry>
        </mxCell>
        <mxCell id="nJRYPMrRPYgnmkcz7Azl-126" value="94.5%" style="connectable=0;recursiveResize=0;strokeColor=inherit;fillColor=inherit;whiteSpace=wrap;html=1;" vertex="1" parent="nJRYPMrRPYgnmkcz7Azl-117">
          <mxGeometry x="391" width="150" height="80" as="geometry">
            <mxRectangle width="150" height="80" as="alternateBounds" />
          </mxGeometry>
        </mxCell>
        <mxCell id="nJRYPMrRPYgnmkcz7Azl-127" value="1/2/2024 9.22 p.m." style="connectable=0;recursiveResize=0;strokeColor=inherit;fillColor=inherit;whiteSpace=wrap;html=1;" vertex="1" parent="nJRYPMrRPYgnmkcz7Azl-117">
          <mxGeometry x="541" width="170" height="80" as="geometry">
            <mxRectangle width="170" height="80" as="alternateBounds" />
          </mxGeometry>
        </mxCell>
        <mxCell id="nJRYPMrRPYgnmkcz7Azl-166" value="31x31" style="connectable=0;recursiveResize=0;strokeColor=inherit;fillColor=inherit;whiteSpace=wrap;html=1;" vertex="1" parent="nJRYPMrRPYgnmkcz7Azl-117">
          <mxGeometry x="711" width="169" height="80" as="geometry">
            <mxRectangle width="169" height="80" as="alternateBounds" />
          </mxGeometry>
        </mxCell>
        <mxCell id="nJRYPMrRPYgnmkcz7Azl-128" style="connectable=0;recursiveResize=0;strokeColor=inherit;fillColor=inherit;whiteSpace=wrap;html=1;" vertex="1" parent="nJRYPMrRPYgnmkcz7Azl-117">
          <mxGeometry x="880" width="170" height="80" as="geometry">
            <mxRectangle width="170" height="80" as="alternateBounds" />
          </mxGeometry>
        </mxCell>
        <mxCell id="nJRYPMrRPYgnmkcz7Azl-129" value="" style="shape=tableRow;horizontal=0;startSize=0;swimlaneHead=0;swimlaneBody=0;top=0;left=0;bottom=0;right=0;dropTarget=0;collapsible=0;recursiveResize=0;expand=0;fontStyle=0;strokeColor=inherit;fillColor=#ffffff;" vertex="1" parent="nJRYPMrRPYgnmkcz7Azl-92">
          <mxGeometry y="207" width="1050" height="73" as="geometry" />
        </mxCell>
        <mxCell id="nJRYPMrRPYgnmkcz7Azl-130" value="Value 7" style="connectable=0;recursiveResize=0;strokeColor=inherit;fillColor=inherit;fontStyle=0;align=center;whiteSpace=wrap;html=1;" vertex="1" parent="nJRYPMrRPYgnmkcz7Azl-129">
          <mxGeometry width="170" height="73" as="geometry">
            <mxRectangle width="170" height="73" as="alternateBounds" />
          </mxGeometry>
        </mxCell>
        <mxCell id="nJRYPMrRPYgnmkcz7Azl-137" value="Potato" style="connectable=0;recursiveResize=0;strokeColor=inherit;fillColor=inherit;fontStyle=0;align=center;whiteSpace=wrap;html=1;" vertex="1" parent="nJRYPMrRPYgnmkcz7Azl-129">
          <mxGeometry x="170" width="221" height="73" as="geometry">
            <mxRectangle width="221" height="73" as="alternateBounds" />
          </mxGeometry>
        </mxCell>
        <mxCell id="nJRYPMrRPYgnmkcz7Azl-138" value="96.3%" style="connectable=0;recursiveResize=0;strokeColor=inherit;fillColor=inherit;fontStyle=0;align=center;whiteSpace=wrap;html=1;" vertex="1" parent="nJRYPMrRPYgnmkcz7Azl-129">
          <mxGeometry x="391" width="150" height="73" as="geometry">
            <mxRectangle width="150" height="73" as="alternateBounds" />
          </mxGeometry>
        </mxCell>
        <mxCell id="nJRYPMrRPYgnmkcz7Azl-139" value="1/2/2024 9.22 p.m." style="connectable=0;recursiveResize=0;strokeColor=inherit;fillColor=inherit;fontStyle=0;align=center;whiteSpace=wrap;html=1;" vertex="1" parent="nJRYPMrRPYgnmkcz7Azl-129">
          <mxGeometry x="541" width="170" height="73" as="geometry">
            <mxRectangle width="170" height="73" as="alternateBounds" />
          </mxGeometry>
        </mxCell>
        <mxCell id="nJRYPMrRPYgnmkcz7Azl-167" value="31x31" style="connectable=0;recursiveResize=0;strokeColor=inherit;fillColor=inherit;fontStyle=0;align=center;whiteSpace=wrap;html=1;" vertex="1" parent="nJRYPMrRPYgnmkcz7Azl-129">
          <mxGeometry x="711" width="169" height="73" as="geometry">
            <mxRectangle width="169" height="73" as="alternateBounds" />
          </mxGeometry>
        </mxCell>
        <mxCell id="nJRYPMrRPYgnmkcz7Azl-140" style="connectable=0;recursiveResize=0;strokeColor=inherit;fillColor=inherit;fontStyle=0;align=center;whiteSpace=wrap;html=1;" vertex="1" parent="nJRYPMrRPYgnmkcz7Azl-129">
          <mxGeometry x="880" width="170" height="73" as="geometry">
            <mxRectangle width="170" height="73" as="alternateBounds" />
          </mxGeometry>
        </mxCell>
        <mxCell id="nJRYPMrRPYgnmkcz7Azl-141" value="" style="shape=tableRow;horizontal=0;startSize=0;swimlaneHead=0;swimlaneBody=0;top=0;left=0;bottom=0;right=0;dropTarget=0;collapsible=0;recursiveResize=0;expand=0;fontStyle=1;strokeColor=inherit;fillColor=#EAF2D3;" vertex="1" parent="nJRYPMrRPYgnmkcz7Azl-92">
          <mxGeometry y="280" width="1050" height="80" as="geometry" />
        </mxCell>
        <mxCell id="nJRYPMrRPYgnmkcz7Azl-142" value="Value 10" style="connectable=0;recursiveResize=0;strokeColor=inherit;fillColor=inherit;whiteSpace=wrap;html=1;" vertex="1" parent="nJRYPMrRPYgnmkcz7Azl-141">
          <mxGeometry width="170" height="80" as="geometry">
            <mxRectangle width="170" height="80" as="alternateBounds" />
          </mxGeometry>
        </mxCell>
        <mxCell id="nJRYPMrRPYgnmkcz7Azl-149" value="Broccoli" style="connectable=0;recursiveResize=0;strokeColor=inherit;fillColor=inherit;whiteSpace=wrap;html=1;" vertex="1" parent="nJRYPMrRPYgnmkcz7Azl-141">
          <mxGeometry x="170" width="221" height="80" as="geometry">
            <mxRectangle width="221" height="80" as="alternateBounds" />
          </mxGeometry>
        </mxCell>
        <mxCell id="nJRYPMrRPYgnmkcz7Azl-150" value="89.4%" style="connectable=0;recursiveResize=0;strokeColor=inherit;fillColor=inherit;whiteSpace=wrap;html=1;" vertex="1" parent="nJRYPMrRPYgnmkcz7Azl-141">
          <mxGeometry x="391" width="150" height="80" as="geometry">
            <mxRectangle width="150" height="80" as="alternateBounds" />
          </mxGeometry>
        </mxCell>
        <mxCell id="nJRYPMrRPYgnmkcz7Azl-151" value="1/2/2024 9.22 p.m." style="connectable=0;recursiveResize=0;strokeColor=inherit;fillColor=inherit;whiteSpace=wrap;html=1;" vertex="1" parent="nJRYPMrRPYgnmkcz7Azl-141">
          <mxGeometry x="541" width="170" height="80" as="geometry">
            <mxRectangle width="170" height="80" as="alternateBounds" />
          </mxGeometry>
        </mxCell>
        <mxCell id="nJRYPMrRPYgnmkcz7Azl-168" value="128x128" style="connectable=0;recursiveResize=0;strokeColor=inherit;fillColor=inherit;whiteSpace=wrap;html=1;" vertex="1" parent="nJRYPMrRPYgnmkcz7Azl-141">
          <mxGeometry x="711" width="169" height="80" as="geometry">
            <mxRectangle width="169" height="80" as="alternateBounds" />
          </mxGeometry>
        </mxCell>
        <mxCell id="nJRYPMrRPYgnmkcz7Azl-152" style="connectable=0;recursiveResize=0;strokeColor=inherit;fillColor=inherit;whiteSpace=wrap;html=1;" vertex="1" parent="nJRYPMrRPYgnmkcz7Azl-141">
          <mxGeometry x="880" width="170" height="80" as="geometry">
            <mxRectangle width="170" height="80" as="alternateBounds" />
          </mxGeometry>
        </mxCell>
        <mxCell id="nJRYPMrRPYgnmkcz7Azl-153" value="Delete" style="rounded=1;whiteSpace=wrap;html=1;fillColor=#f8cecc;strokeColor=#b85450;" vertex="1" parent="1">
          <mxGeometry x="962" y="1254" width="70" height="30" as="geometry" />
        </mxCell>
        <mxCell id="nJRYPMrRPYgnmkcz7Azl-154" value="Delete" style="rounded=1;whiteSpace=wrap;html=1;fillColor=#f8cecc;strokeColor=#b85450;" vertex="1" parent="1">
          <mxGeometry x="962" y="1344" width="70" height="30" as="geometry" />
        </mxCell>
        <mxCell id="nJRYPMrRPYgnmkcz7Azl-155" value="Delete" style="rounded=1;whiteSpace=wrap;html=1;fillColor=#f8cecc;strokeColor=#b85450;" vertex="1" parent="1">
          <mxGeometry x="961" y="1410" width="70" height="30" as="geometry" />
        </mxCell>
        <mxCell id="nJRYPMrRPYgnmkcz7Azl-156" value="Delete" style="rounded=1;whiteSpace=wrap;html=1;fillColor=#f8cecc;strokeColor=#b85450;" vertex="1" parent="1">
          <mxGeometry x="962" y="1494" width="70" height="30" as="geometry" />
        </mxCell>
        <mxCell id="nJRYPMrRPYgnmkcz7Azl-157" value="Search&amp;nbsp;" style="strokeWidth=1;shadow=0;dashed=0;align=center;html=1;shape=mxgraph.mockup.forms.searchBox;strokeColor=#999999;mainText=;strokeColor2=#008cff;fontColor=#666666;fontSize=17;align=left;spacingLeft=3;whiteSpace=wrap;" vertex="1" parent="1">
          <mxGeometry x="710" y="1080" width="240" height="30" as="geometry" />
        </mxCell>
        <mxCell id="nJRYPMrRPYgnmkcz7Azl-158" value="Filter By Vegetable" style="strokeWidth=1;shadow=0;dashed=0;align=center;html=1;shape=mxgraph.mockup.forms.comboBox;strokeColor=#999999;fillColor=#ddeeff;align=left;fillColor2=#aaddff;mainText=;fontColor=#666666;fontSize=17;spacingLeft=3;" vertex="1" parent="1">
          <mxGeometry x="30" y="1080" width="242" height="30" as="geometry" />
        </mxCell>
        <mxCell id="nJRYPMrRPYgnmkcz7Azl-173" value="Sort By" style="strokeWidth=1;shadow=0;dashed=0;align=center;html=1;shape=mxgraph.mockup.forms.comboBox;strokeColor=#999999;fillColor=#ddeeff;align=left;fillColor2=#aaddff;mainText=;fontColor=#666666;fontSize=17;spacingLeft=3;" vertex="1" parent="1">
          <mxGeometry x="961" y="1080" width="129" height="30" as="geometry" />
        </mxCell>
        <mxCell id="nJRYPMrRPYgnmkcz7Azl-174" value="" style="verticalLabelPosition=bottom;shadow=0;dashed=0;align=center;html=1;verticalAlign=top;strokeWidth=1;shape=mxgraph.mockup.forms.splitter;strokeColor=#999999;" vertex="1" parent="1">
          <mxGeometry x="30" y="1130" width="1060" height="10" as="geometry" />
        </mxCell>
        <mxCell id="nJRYPMrRPYgnmkcz7Azl-176" value="&lt;font style=&quot;font-size: 16px;&quot;&gt;Showing &lt;b&gt;4&lt;/b&gt;&amp;nbsp;items&lt;/font&gt;" style="text;html=1;align=left;verticalAlign=middle;resizable=0;points=[];autosize=1;strokeColor=none;fillColor=none;" vertex="1" parent="1">
          <mxGeometry x="30" y="1148" width="140" height="30" as="geometry" />
        </mxCell>
      </root>
    </mxGraphModel>
  </diagram>
</mxfile>
